<svg aria-hidden="true" style="position: absolute; width: 0; height: 0; overflow: hidden;" version="1.1" xmlns="http://www.w3.org/2000/svg" xmlns:xlink="http://www.w3.org/1999/xlink">
<defs>
<symbol id="icon-facebook" viewBox="0 0 16 16">
<path d="M9.5 3h2.5v-3h-2.5c-1.93 0-3.5 1.57-3.5 3.5v1.5h-2v3h2v8h3v-8h2.5l0.5-3h-3v-1.5c0-0.271 0.229-0.5 0.5-0.5z"></path>
</symbol>
<symbol id="icon-instagram" viewBox="0 0 16 16">
<path d="M8 1.441c2.137 0 2.391 0.009 3.231 0.047 0.781 0.034 1.203 0.166 1.484 0.275 0.372 0.144 0.641 0.319 0.919 0.597 0.281 0.281 0.453 0.547 0.6 0.919 0.109 0.281 0.241 0.706 0.275 1.484 0.037 0.844 0.047 1.097 0.047 3.231s-0.009 2.391-0.047 3.231c-0.034 0.781-0.166 1.203-0.275 1.484-0.144 0.372-0.319 0.641-0.597 0.919-0.281 0.281-0.547 0.453-0.919 0.6-0.281 0.109-0.706 0.241-1.484 0.275-0.844 0.037-1.097 0.047-3.231 0.047s-2.391-0.009-3.231-0.047c-0.781-0.034-1.203-0.166-1.484-0.275-0.372-0.144-0.641-0.319-0.919-0.597-0.281-0.281-0.453-0.547-0.6-0.919-0.109-0.281-0.241-0.706-0.275-1.484-0.038-0.844-0.047-1.097-0.047-3.231s0.009-2.391 0.047-3.231c0.034-0.781 0.166-1.203 0.275-1.484 0.144-0.372 0.319-0.641 0.597-0.919 0.281-0.281 0.547-0.453 0.919-0.6 0.281-0.109 0.706-0.241 1.484-0.275 0.841-0.038 1.094-0.047 3.231-0.047zM8 0c-2.172 0-2.444 0.009-3.297 0.047-0.85 0.038-1.434 0.175-1.941 0.372-0.528 0.206-0.975 0.478-1.419 0.925-0.447 0.444-0.719 0.891-0.925 1.416-0.197 0.509-0.334 1.091-0.372 1.941-0.037 0.856-0.047 1.128-0.047 3.3s0.009 2.444 0.047 3.297c0.038 0.85 0.175 1.434 0.372 1.941 0.206 0.528 0.478 0.975 0.925 1.419 0.444 0.444 0.891 0.719 1.416 0.922 0.509 0.197 1.091 0.334 1.941 0.372 0.853 0.037 1.125 0.047 3.297 0.047s2.444-0.009 3.297-0.047c0.85-0.037 1.434-0.175 1.941-0.372 0.525-0.203 0.972-0.478 1.416-0.922s0.719-0.891 0.922-1.416c0.197-0.509 0.334-1.091 0.372-1.941 0.037-0.853 0.047-1.125 0.047-3.297s-0.009-2.444-0.047-3.297c-0.037-0.85-0.175-1.434-0.372-1.941-0.197-0.531-0.469-0.978-0.916-1.422-0.444-0.444-0.891-0.719-1.416-0.922-0.509-0.197-1.091-0.334-1.941-0.372-0.856-0.041-1.128-0.050-3.3-0.050v0z"></path>
<path d="M8 3.891c-2.269 0-4.109 1.841-4.109 4.109s1.841 4.109 4.109 4.109 4.109-1.841 4.109-4.109c0-2.269-1.841-4.109-4.109-4.109zM8 10.666c-1.472 0-2.666-1.194-2.666-2.666s1.194-2.666 2.666-2.666c1.472 0 2.666 1.194 2.666 2.666s-1.194 2.666-2.666 2.666z"></path>
<path d="M13.231 3.728c0 0.53-0.43 0.959-0.959 0.959s-0.959-0.43-0.959-0.959c0-0.53 0.43-0.959 0.959-0.959s0.959 0.43 0.959 0.959z"></path>
</symbol>
<symbol id="icon-twitter" viewBox="0 0 16 16">
<path d="M16 3.538c-0.588 0.263-1.222 0.438-1.884 0.516 0.678-0.406 1.197-1.050 1.444-1.816-0.634 0.375-1.338 0.65-2.084 0.797-0.6-0.638-1.453-1.034-2.397-1.034-1.813 0-3.281 1.469-3.281 3.281 0 0.256 0.028 0.506 0.084 0.747-2.728-0.138-5.147-1.444-6.766-3.431-0.281 0.484-0.444 1.050-0.444 1.65 0 1.138 0.578 2.144 1.459 2.731-0.538-0.016-1.044-0.166-1.488-0.409 0 0.013 0 0.028 0 0.041 0 1.591 1.131 2.919 2.634 3.219-0.275 0.075-0.566 0.116-0.866 0.116-0.212 0-0.416-0.022-0.619-0.059 0.419 1.303 1.631 2.253 3.066 2.281-1.125 0.881-2.538 1.406-4.078 1.406-0.266 0-0.525-0.016-0.784-0.047 1.456 0.934 3.181 1.475 5.034 1.475 6.037 0 9.341-5.003 9.341-9.341 0-0.144-0.003-0.284-0.009-0.425 0.641-0.459 1.197-1.038 1.637-1.697z"></path>
</symbol>
<symbol id="icon-linkedin" viewBox="0 0 32 32">
<path d="M31.992 32h0.008v-11.738c0-5.741-1.235-10.163-7.947-10.163-3.227 0-5.392 1.77-6.277 3.45h-0.093v-2.914h-6.365v21.363h6.627v-10.578c0-2.786 0.528-5.48 3.978-5.48 3.398 0 3.45 3.179 3.45 5.658v10.402h6.619zM0.528 10.635h6.635v21.365h-6.635v-21.365zM3.843 0c-2.123 0-3.843 1.721-3.843 3.843v0c0 2.12 1.722 3.878 3.843 3.878 2.12 0 3.842-1.757 3.842-3.878s-1.72-3.841-3.841-3.843h-0z"></path>
</symbol>
<symbol id="icon-antenna" viewBox="0 0 70 70">
<path d="m67.316 48.339-18.47-18.605 2.05-10.097a4.655 4.655 0 0 0 1.66.319h.014a4.723 4.723 0 1 0-4.394-3.14l-10.85 1.325L19.628.35a1.166 1.166 0 0 0-.824-.35c-.306.002-.6.124-.817.34L14.68 3.63a1.167 1.167 0 0 0 0 1.65l1.78 1.805a32.686 32.686 0 0 0 5.511 38.638c.094.09.202.161.32.213a6.77 6.77 0 0 0-.114 1.197v13.534h-14A5.84 5.84 0 0 0 2.342 66.5v2.333c0 .645.523 1.167 1.167 1.167h53.667c.644 0 1.166-.522 1.166-1.167V66.5a5.84 5.84 0 0 0-5.833-5.833h-14v-5.998c2.193.46 4.428.694 6.669.7a32.483 32.483 0 0 0 15.4-3.901l1.79 1.8c.216.221.513.347.823.35.306-.002.6-.124.817-.34l3.308-3.29a1.167 1.167 0 0 0 0-1.65ZM50.925 13.635a2.333 2.333 0 1 1 1.645 3.987h-.008a2.333 2.333 0 0 1-1.633-3.987h-.004ZM48.178 21.3l-1.309 6.444-2.571-2.587 3.88-3.857Zm-1.325-1.973-4.2 4.176-3.25-3.267 7.45-.909ZM52.509 63a3.5 3.5 0 0 1 3.5 3.5v1.167H4.676V66.5a3.5 3.5 0 0 1 3.5-3.5h44.333Zm-16.333-4.667v2.334H24.509v-2.334h11.667ZM24.509 56v-8.867c0-2.83 2.617-5.133 5.833-5.133 3.217 0 5.834 2.303 5.834 5.133V56H24.509Zm14-3.71v-5.157c0-4.117-3.663-7.466-8.167-7.466a8.312 8.312 0 0 0-7.177 3.907A30.34 30.34 0 0 1 18.18 8.82l40.692 40.925a30.233 30.233 0 0 1-20.363 2.544Zm24.695-1.496-1.644-1.653L18.792 6.116l-1.65-1.655 1.65-1.645L36.15 20.272c.008 0 .013.015.021.021l28.688 28.856-1.655 1.645Z" fill="#212121"/><path d="M30.353 44.333h-.01a3.5 3.5 0 0 0-.011 7h.01a3.5 3.5 0 1 0 .01-7Zm.816 4.328a1.167 1.167 0 1 1-.827-1.994 1.166 1.166 0 0 1 .817 1.993h.01Z" fill="#2196F3"/>
</symbol>
<symbol id="icon-astronaut" viewBox="0 0 70 70">
<path d="M69.943 9.896a1.168 1.168 0 0 0-.941-.793l-4.18-.608-1.87-3.787c-.391-.798-1.7-.798-2.091 0l-1.87 3.787-4.18.608a1.167 1.167 0 0 0-.648 1.99l3.026 2.948-.714 4.162c-.075.438.105.88.463 1.142.363.263.837.296 1.23.088l3.738-1.966 3.738 1.966a1.168 1.168 0 0 0 1.693-1.23l-.714-4.162 3.025-2.949a1.17 1.17 0 0 0 .295-1.196ZM64.556 12.8c-.275.267-.4.655-.335 1.033l.417 2.437-2.188-1.15a1.165 1.165 0 0 0-1.088 0l-2.188 1.15.417-2.437a1.168 1.168 0 0 0-.334-1.033l-1.773-1.727 2.448-.355c.38-.055.708-.294.879-.639l1.094-2.216 1.094 2.216c.17.345.498.584.879.639l2.448.355-1.77 1.727ZM57.167 44.892h-2.333v2.334h2.333v-2.334ZM57.167 49.56h-2.333v2.332h2.333V49.56ZM59.5 47.226h-2.333v2.333H59.5v-2.333ZM54.834 47.226H52.5v2.333h2.334v-2.333ZM49 57.726h-2.333v2.333H49v-2.333ZM49 62.393h-2.333v2.333H49v-2.333ZM51.334 60.06H49v2.333h2.334v-2.334ZM46.667 60.06h-2.334v2.333h2.334v-2.334ZM35 53.06h-2.333v2.333H35v-2.334ZM35 57.726h-2.333v2.333H35v-2.333ZM37.333 55.392H35v2.334h2.333v-2.334ZM32.667 55.392h-2.334v2.334h2.334v-2.334ZM12.833 13.392H10.5v2.333h2.333v-2.333ZM12.833 18.059H10.5v2.333h2.333V18.06ZM15.166 15.725h-2.333v2.334h2.333v-2.334ZM10.5 15.725H8.166v2.334H10.5v-2.334Z" fill="#2196F3"/><path d="M54.064 30.974a3.88 3.88 0 0 0-2.6-1.541 3.886 3.886 0 0 0-2.93.77L45.794 32.3l-.001.002-4.151 3.1-2.97-1.184c5.296-2.376 8.998-7.674 8.998-13.825 0-8.363-6.83-15.167-15.227-15.167s-15.228 6.804-15.228 15.167c0 3.031.907 5.85 2.45 8.222l-6.046-.053h-.01c-.019 0-.034.01-.051.01a1.14 1.14 0 0 0-.34.069c-.028.01-.057.016-.084.029-.014.006-.028.007-.042.014l-7.072 3.491c-.001 0-.003 0-.003.002l-4.141 1.991a.915.915 0 0 0-.138.077A3.895 3.895 0 0 0 .43 39.268a3.884 3.884 0 0 0 2.31 1.944 3.891 3.891 0 0 0 3.016-.281l3.036-1.614 4.952-2.558 2.968-.017L4.808 48.588c0 .002-.002.002-.003.003l-2.928 2.916a3.607 3.607 0 0 0-1.073 2.577 3.647 3.647 0 0 0 3.652 3.64c.936 0 1.869-.355 2.582-1.062l2.875-2.863 3.808-2.843 1.97 1.962-3.853 3.837-.004.002-2.928 2.917a3.607 3.607 0 0 0-1.073 2.576c0 .973.38 1.889 1.073 2.579a3.65 3.65 0 0 0 2.58 1.061c.935 0 1.87-.354 2.582-1.061l2.93-2.917 4.686-4.667.002-.003 2.21-2.188-.01-.008c.015-.014.035-.019.049-.034l11.3-12.377 7.593 1.08c.055.008.11.012.165.012.14 0 .277-.034.41-.084.038-.014.071-.033.108-.051.042-.021.086-.033.126-.06l7.029-4.666c.026-.018.04-.046.064-.065.028-.022.063-.031.089-.056l2.78-2.605a3.892 3.892 0 0 0 .465-5.166ZM4.66 38.872a1.56 1.56 0 0 1-1.221.113 1.565 1.565 0 0 1-.465-2.755l2.874-1.383.692 2.022.29.85-2.17 1.153Zm7.65-3.998-3.387 1.75-.558-1.633-.402-1.174 4.434-2.189-.087 3.246Zm33.03-14.482c0 2.009-.48 3.904-1.31 5.599l-9.147-4.155a4.07 4.07 0 0 0-1.724-3.035l3.203-10.633c5.2 1.655 8.978 6.507 8.978 12.224Zm-25.788 0c0-7.076 5.784-12.834 12.894-12.834.553 0 1.094.047 1.63.115L30.943 18.07c-.042 0-.081-.013-.125-.013a4.094 4.094 0 0 0-4.096 4.084 4.095 4.095 0 0 0 4.096 4.083c1.52 0 2.832-.838 3.54-2.066l8.45 3.838c-2.352 3.165-6.114 5.228-10.362 5.228-7.11 0-12.894-5.757-12.894-12.833Zm13.03 1.75c0 .965-.792 1.75-1.764 1.75a1.759 1.759 0 0 1-1.762-1.75c0-.965.79-1.75 1.762-1.75s1.763.785 1.763 1.75ZM5.391 55.007a1.33 1.33 0 0 1-1.87.002 1.3 1.3 0 0 1 0-1.847l2.105-2.097L7.49 52.92l-2.097 2.088Zm7.03 8.167a1.33 1.33 0 0 1-1.87.002 1.299 1.299 0 0 1 0-1.847l2.106-2.098.88.876.983.978-2.099 2.09Zm7.616-7.588-.003.003-3.86 3.85-.882-.877-.982-.977 3.857-3.84v-.001l.004-.002c.087-.088.142-.193.196-.297.015-.03.044-.056.057-.087.036-.09.042-.187.056-.281.007-.054.03-.104.03-.16 0-.077-.028-.153-.044-.23-.014-.07-.014-.141-.041-.209a1.166 1.166 0 0 0-.2-.301c-.022-.026-.03-.058-.054-.083h-.002s0-.003-.002-.005l-3.515-3.5c-.037-.037-.085-.052-.127-.084a1.122 1.122 0 0 0-.19-.126 1.091 1.091 0 0 0-.204-.07 1.134 1.134 0 0 0-.226-.044 1.142 1.142 0 0 0-.209.01c-.078.01-.151.02-.227.045-.074.023-.139.06-.206.098-.044.024-.093.033-.133.063l-3.88 2.896-1.97-1.963 5.248-5.22 9.538 9.382-2.029 2.01Zm14.917-15.349c-.034-.005-.066.008-.1.006a1.148 1.148 0 0 0-.252.015 1.081 1.081 0 0 0-.404.15c-.065.04-.124.081-.181.134-.028.024-.062.036-.088.064L23.653 51.862l-9.468-9.311 6.197-6.165a1.168 1.168 0 0 0-.83-1.993l-4.854.028.061-3.516 6.79.058a15.2 15.2 0 0 0 10.897 4.596c.957 0 1.89-.1 2.799-.268.087.07.174.14.283.185l5.272 2.1.333 1.659.39 1.937-6.569-.935Zm8.84.39-.685-3.408 3.164-2.363.828 1.1 1.242 1.649-4.55 3.022Zm8.21-6.193-1.832 1.717-2.037-2.704 1.818-1.394c.34-.261.768-.368 1.188-.313.422.06.796.28 1.05.622a1.562 1.562 0 0 1-.187 2.072Z" fill="#212121"/><path d="m29.755 40.565-4.688-4.667a1.166 1.166 0 0 0-1.646 0l-4.687 4.667a1.172 1.172 0 0 0 0 1.654l4.686 4.667a1.166 1.166 0 0 0 1.647 0l4.688-4.667a1.167 1.167 0 0 0 0-1.654Zm-5.51 3.848-3.034-3.02 3.033-3.021 3.035 3.02-3.035 3.02ZM37.547 11.092l-.564 2.266c.156.039 3.801.988 3.801 4.7h2.334c0-4.412-3.644-6.486-5.571-6.966ZM43.118 20.392h-2.334v2.333h2.334v-2.333Z" fill="#212121"/>
</symbol>
<symbol id="icon-clock" viewBox="0 0 70 70">
<path d="M68.461 33.471C68.458 14.982 53.466-.004 34.975 0 16.485.004 1.5 14.996 1.504 33.486A33.479 33.479 0 0 0 24.799 65.37c.133.042.27.063.41.063.263 0 .521-.071.748-.205.296-.175.516-.453.62-.78l8.454-26.797a4.184 4.184 0 1 0-1.837-7.95L22.025 18.53a1.395 1.395 0 0 0-1.972 1.973l11.163 11.176a4.104 4.104 0 0 0 1.173 5.051l-8.055 25.535C8.414 56.4.262 38.74 6.126 22.82 11.991 6.9 29.65-1.252 45.571 4.613c15.92 5.864 24.072 23.524 18.207 39.444A30.72 30.72 0 0 1 47.455 61.5l-.87-4.1a1.394 1.394 0 0 0-2.294-.752l-8.393 7.494a1.394 1.394 0 0 0 .505 2.372l10.716 3.42a1.394 1.394 0 0 0 1.791-1.619l-.855-4.022a33.37 33.37 0 0 0 20.406-30.82Zm-33.478-1.394a1.395 1.395 0 1 1 0 2.79 1.395 1.395 0 0 1 0-2.79Zm4.594 32.515 4.778-4.262 1.319 6.213-6.097-1.951Z" fill="#212121"/><path d="M33.588 6.967v2.79a1.395 1.395 0 1 0 2.79 0v-2.79a1.395 1.395 0 0 0-2.79 0ZM8.479 32.077a1.395 1.395 0 0 0 0 2.79h2.79a1.395 1.395 0 1 0 0-2.79h-2.79ZM61.487 34.867a1.395 1.395 0 1 0 0-2.79h-2.79a1.395 1.395 0 0 0 0 2.79h2.79Z" fill="#2196F3"/>
</symbol>
<symbol id="icon-diagram" viewBox="0 0 70 70">
<path d="M32.65 32.735h2.332V43.23H32.65V32.735ZM41.978 37.4h2.332v5.83h-2.332V37.4ZM23.321 40.898h2.332v2.332h-2.332v-2.332ZM16.325 39.731h2.332v3.498h-2.332v-3.498Z" fill="#2196F3"/><path d="M3.498 61.886h55.97a3.498 3.498 0 0 0 3.499-3.498v-4.664a3.498 3.498 0 0 0-3.498-3.498h-1.166v-29.08l6.623-6.274a3.518 3.518 0 1 0-1.633-1.668l-4.99 4.73v-2.69a3.498 3.498 0 0 0-3.498-3.498H8.162a3.498 3.498 0 0 0-3.498 3.498v34.982H3.498A3.498 3.498 0 0 0 0 53.724v4.664a3.498 3.498 0 0 0 3.498 3.498ZM66.465 10.58a1.166 1.166 0 1 1 0 2.332 1.166 1.166 0 0 1 0-2.332ZM6.996 15.244c0-.644.522-1.166 1.166-1.166h46.643c.644 0 1.166.522 1.166 1.166v4.897l-2.332 2.216v-4.78c0-.645-.523-1.167-1.167-1.167H10.495c-.644 0-1.167.522-1.167 1.166v29.152c0 .644.523 1.166 1.167 1.166h41.977c.645 0 1.167-.522 1.167-1.166V25.565l2.332-2.21v26.87H6.996v-34.98Zm10.495 15.159a3.498 3.498 0 1 0 2.422 6.012l4.053 2.034c.471.235 1.042.125 1.392-.268l8.616-9.694 8.47 6.347c.455.34 1.089.304 1.501-.086l7.361-6.973v17.787H11.661v-26.82h39.645v5.82l-8.25 7.813-8.54-6.403a1.167 1.167 0 0 0-1.572.157l-8.734 9.828-3.265-1.633c.023-.14.038-.281.044-.423a3.498 3.498 0 0 0-3.498-3.498Zm1.166 3.498a1.166 1.166 0 1 1-2.332 0 1.166 1.166 0 0 1 2.332 0Zm6.996 18.657h11.66v1.166c0 .644-.521 1.166-1.165 1.166h-9.329a1.166 1.166 0 0 1-1.166-1.166v-1.166Zm-23.32 1.166c0-.644.521-1.166 1.165-1.166h19.823v1.166a3.498 3.498 0 0 0 3.498 3.498h9.329a3.498 3.498 0 0 0 3.498-3.498v-1.166h19.823c.644 0 1.166.522 1.166 1.166v4.664c0 .644-.522 1.166-1.166 1.166H3.499a1.166 1.166 0 0 1-1.167-1.166v-4.664Z" fill="#212121"/>
</symbol>
<symbol id="icon-smartphone" viewBox="0 0 20 32">
<path d="M17 0h-14c-1.654 0-3 1.346-3 3v26c0 1.654 1.346 3 3 3h14c1.654 0 3-1.346 3-3v-26c0-1.654-1.346-3-3-3zM3 2h14c0.552 0 1 0.448 1 1v0 21h-16v-21c0-0.552 0.448-1 1-1v0zM17 30h-14c-0.552 0-1-0.448-1-1v0-3h16v3c0 0.552-0.448 1-1 1v0z"></path>
<path d="M4.708 27.478c0.18 0.163 0.293 0.399 0.293 0.66s-0.113 0.497-0.292 0.659l-0.001 0.001c-0.186 0.17-0.435 0.275-0.708 0.275s-0.522-0.104-0.709-0.275l0.001 0.001c-0.18-0.163-0.293-0.399-0.293-0.66s0.113-0.497 0.292-0.659l0.001-0.001c0.186-0.17 0.435-0.275 0.708-0.275s0.522 0.104 0.709 0.275l-0.001-0.001z"></path>
</symbol>
<symbol id="icon-envelope" viewBox="0 0 43 32">
<path d="M38.667 0h-34.667c-2.205 0-4 1.795-4 4v24c0 2.205 1.795 4 4 4h34.667c2.205 0 4-1.795 4-4v-24c0-2.205-1.795-4-4-4zM38.667 2.667c0.181 0 0.355 0.037 0.512 0.104l-17.845 15.467-17.845-15.467c0.151-0.065 0.327-0.104 0.512-0.104h34.667zM38.667 29.333h-34.667c-0.736 0-1.333-0.597-1.333-1.333v0-22.413l17.792 15.421c0.233 0.203 0.539 0.327 0.875 0.327s0.642-0.124 0.876-0.328l-0.002 0.001 17.792-15.421v22.413c0 0.736-0.597 1.333-1.333 1.333v0z"></path>
</symbol>
<symbol id="logo-1" viewBox="0 0 57 32">
    <path d="m20.267 3.733 3.738 3.538-6.938-.004v17.167H35.2V17.87l3.733 3.534V3.733H20.266zm14.769 13.722L24.439 7.423h10.597v10.032zm-3.29 4.468h-11.81V10.378h.835v10.763h10.975v.781zm-9.021 4.797-.436.899-.436-.899h-.366l.637 1.198v.698h.331v-.698l.635-1.198h-.364zm.549 1.896.154-.442h.734l.155.442h.344l-.717-1.896h-.296l-.716 1.896h.342zm.52-1.493.275.786h-.549l.275-.787zm1.737.74c-.045.067-.071.149-.071.238v.003c0 .16.056.29.168.389s.263.149.45.149c.188 0 .349-.051.485-.153l.107.126h.367l-.278-.33c.109-.149.164-.341.164-.574h-.275c0 .128-.027.244-.079.348l-.366-.432.129-.094c.078-.053.144-.119.195-.195l.002-.003c.038-.061.06-.136.06-.216v-.01c0-.117-.051-.221-.132-.293a.47702.47702 0 0 0-.32-.123h-.02.001c-.153 0-.274.044-.364.13s-.135.203-.135.352c0 .061.014.123.043.189.03.065.082.144.155.237-.14.101-.235.188-.282.261zm.856.42c-.081.066-.185.106-.299.107h-.015c-.082 0-.156-.031-.212-.083-.052-.052-.085-.123-.085-.203v-.011.001c0-.101.052-.192.156-.271l.041-.029.414.489zm-.34-.84c-.09-.11-.134-.202-.134-.275 0-.063.019-.116.055-.157.034-.039.084-.063.139-.063h.015c.052 0 .1.02.135.054.037.035.056.077.056.126v.007c0 .071-.031.134-.08.177l-.041.032-.145.099zm3.086 1.03c.13-.114.205-.272.224-.474h-.328c-.018.135-.059.232-.124.29s-.163.087-.292.087c-.141 0-.249-.054-.323-.162s-.11-.264-.11-.469v-.167c.002-.203.041-.355.117-.46.077-.105.188-.157.331-.157.123 0 .217.03.28.091s.104.158.12.294h.328c-.021-.207-.095-.368-.222-.482s-.296-.171-.506-.171c-.155 0-.292.037-.411.111-.119.076-.213.183-.27.31l-.002.005c-.06.133-.096.288-.096.451v.023-.001.177c.003.174.035.327.098.46s.151.234.266.306c.116.071.249.107.4.107.216 0 .389-.056.519-.169zm1.936-.266c.064-.141.097-.304.097-.49v-.125c0-.169-.036-.329-.102-.473l.003.007c-.06-.134-.156-.243-.274-.318l-.003-.002c-.119-.075-.256-.112-.411-.112s-.291.037-.411.113c-.119.075-.211.182-.277.324-.062.137-.098.297-.098.466v.025-.001.107c.001.181.034.341.099.48.066.139.159.246.279.322.121.075.258.112.411.112.156 0 .293-.037.412-.112.119-.076.212-.183.276-.323zm-.353-1.072c.08.112.119.274.119.484v.099c0 .213-.039.376-.118.487-.078.111-.19.167-.336.167h-.014c-.134 0-.253-.067-.324-.17l-.001-.001c-.081-.114-.121-.275-.121-.483v-.109c.002-.204.043-.362.122-.473.071-.102.188-.168.321-.168h.014-.001c.146 0 .259.056.338.168z"/>
</symbol>
<symbol id="logo-2" viewBox="0 0 57 32">
    <path d="M26.727 3.165h-.073c-.112-.007-.224-.01-.336-.012h-.243c-.212 0-.428.005-.642.016-.007-.001-.016-.001-.024-.001s-.017 0-.025.001h.001c-2.059.12-3.971.635-5.699 1.47l.09-.039-.23.111V16.52l.54-.183c.474-.163.978-.309 1.5-.445 1.29-.345 2.775-.553 4.305-.573h.012v1.551c-.193.001-.38.006-.568.016h-.045c-1.212.068-2.348.25-3.442.537l.12-.027c-1.503.382-2.82.91-4.044 1.586l.087-.044V3.793c1.195-.711 2.578-1.29 4.042-1.665l.11-.024c1.173-.315 2.52-.499 3.909-.505h.231c.273.007.539.019.788.038.658.046 1.31.15 1.949.311v1.527c-.544-.133-1.189-.234-1.849-.282l-.039-.002-.039-.003c-.132-.011-.263-.022-.386-.022zm2.688 1.561c.339.026.69.038 1.044.038 1.464-.006 2.881-.198 4.231-.554l-.117.026c1.502-.383 2.819-.912 4.043-1.587l-.087.044v14.875c-1.195.71-2.578 1.289-4.042 1.665l-.11.024c-1.173.314-2.52.498-3.91.503h-.1c-1.02 0-2.01-.128-2.955-.368l.083.018V4.438c.229.053.466.102.706.142.394.067.81.115 1.214.145zm7.57.116-.54.181c-.496.167-.997.316-1.5.449-1.344.36-2.888.569-4.48.575h-.004c-.352 0-.676-.01-.989-.03l-.43-.028v12.148l.37.032c.342.03.696.045 1.052.045 1.257-.006 2.473-.172 3.631-.48l-.1.023c1.059-.269 1.977-.608 2.848-1.031l-.088.039.23-.111V4.842zM19.06 24.113c-.145-.15-.348-.243-.572-.243-.01 0-.02 0-.03.001h.001-.012c-.121 0-.236.024-.34.067l.006-.002c-.205.082-.364.243-.442.444l-.002.005c-.043.107-.063.22-.062.335v2.023c-.005.142.022.284.079.415.048.104.117.196.203.271.081.068.175.117.277.144.099.027.201.042.302.042.113.001.224-.023.326-.07.304-.135.512-.434.512-.781v-.226h-.53v.192c0 .06-.011.118-.032.171l.001-.003c-.018.045-.044.083-.077.114-.061.047-.137.076-.221.077-.009.001-.02.002-.031.002-.089 0-.168-.043-.216-.11l-.001-.001c-.044-.071-.071-.158-.071-.251v-.021.001-1.887c-.003-.105.019-.208.065-.302.049-.075.132-.124.227-.124.011 0 .022.001.033.002h-.001.01c.092 0 .174.045.226.114l.001.001c.055.071.088.162.088.26v.012-.001.175h.524v-.215c0-.124-.024-.243-.067-.352l.002.006c-.041-.111-.102-.205-.177-.285zm3.142-.022c-.161-.137-.371-.221-.601-.223-.108 0-.215.02-.316.057-.218.078-.391.239-.483.443l-.002.005c-.053.123-.08.257-.077.392v1.94c-.004.137.023.272.077.397.048.105.117.197.205.271.081.075.176.133.279.171.101.037.208.057.316.057.231-.001.442-.087.603-.229l-.001.001c.084-.076.152-.168.199-.271.054-.125.081-.261.077-.397v-1.958c0-.135-.029-.264-.08-.381l.002.006c-.049-.111-.117-.205-.199-.283zm-.247 2.615c.001.009.001.019.001.03 0 .099-.041.188-.106.251-.067.056-.154.091-.249.091s-.182-.034-.25-.091h.001c-.066-.063-.106-.152-.106-.25 0-.011 0-.022.002-.032v.001-1.941c-.001-.009-.001-.019-.001-.03 0-.098.041-.187.106-.25.067-.056.154-.091.249-.091s.182.034.25.091h-.001c.066.063.106.152.106.25 0 .011 0 .021-.001.032v-.001 1.941zm4.374.867v-3.675h-.508l-.668 1.945h-.009l-.674-1.945h-.503v3.674h.525v-2.235h.01l.514 1.58h.262l.518-1.58h.01v2.235h.525zm2.982-3.416a.72687.72687 0 0 0-.297-.201c-.108-.036-.232-.057-.361-.057h-.8v3.675h.524v-1.435h.269c.164.007.326-.027.473-.1.12-.068.217-.163.286-.278l.002-.003c.06-.098.101-.206.12-.32.018-.116.028-.249.028-.385v-.035.002c.005-.176-.012-.353-.051-.525-.037-.132-.104-.246-.193-.338zm-.27 1.12c-.002.07-.02.136-.05.194l.001-.003c-.03.056-.077.101-.133.128l-.002.001c-.065.03-.14.047-.22.047-.01 0-.019 0-.028-.001h.001-.239v-1.249h.27c.008 0 .016-.001.025-.001.077 0 .149.017.214.048l-.003-.001c.054.031.096.078.122.134l.001.002c.029.065.044.134.046.205v.244c0 .085.005.174 0 .252h-.005zm2.75-1.378h-.429l-.81 3.675h.524l.154-.789h.714l.154.789h.523l-.829-3.675zm-.483 2.384.258-1.332h.01l.256 1.332h-.523zm3.865-.171h-.01l-.79-2.213h-.503v3.675h.523v-2.21h.011l.8 2.209h.493v-3.674h-.523v2.213zm3.199-2.213-.421 1.461h-.011l-.421-1.461h-.554l.719 2.122v1.553h.524v-1.553l.719-2.121h-.555zM17.6 28.611h.252v.708h.171v-.708h.251v-.145H17.6v.146zm2.121-.146-.331.853h.182l.07-.194h.34l.073.194h.187l-.339-.853h-.182zm-.027.516.116-.316.116.316h-.232zm2.124.023h.197v.11c-.055.044-.126.072-.203.072H21.8c-.068 0-.129-.032-.169-.081-.04-.057-.063-.127-.063-.203 0-.007 0-.013.001-.02v.001c0-.19.082-.285.245-.285.006-.001.012-.001.018-.001.084 0 .155.058.174.136v.001l.169-.033c-.036-.166-.156-.251-.362-.251h-.011c-.11 0-.211.042-.287.11-.076.075-.124.18-.124.296 0 .011 0 .022.001.033v-.001.02c0 .115.041.22.11.301l-.001-.001c.075.078.181.126.297.126.009 0 .018 0 .027-.001h-.001.014c.134 0 .257-.052.348-.137v-.336h-.37v.144zm2.141-.539h-.173v.853h.597v-.145h-.425v-.708zm1.811 0h-.173v.853h.173v-.853zm1.769.57-.349-.57h-.167v.853h.16v-.557l.343.557h.172v-.853h-.158v.57zm1.601-.093h.425v-.145h-.425v-.187h.457v-.146h-.63v.853h.647v-.145h-.475v-.231zm3.88-.14h-.336v-.336h-.171v.853h.171v-.373h.336v.373h.172v-.853h-.172v.337zm1.609.14h.427v-.145h-.427v-.187h.459v-.146h-.629v.853h.646v-.145h-.475v-.231zm2.183.001c.149-.023.224-.102.224-.237.001-.007.001-.015.001-.024 0-.068-.033-.128-.085-.166h-.001c-.063-.032-.137-.051-.216-.051-.012 0-.023 0-.035.001h.002-.362v.853h.172v-.357h.048c.034 0 .066.007.094.02l-.001-.001c.025.015.046.037.061.062l.186.271h.205l-.104-.166c-.047-.083-.111-.152-.187-.203l-.002-.001zm-.173-.118h-.126v-.214h.135c.011-.001.023-.001.036-.001.049 0 .097.008.141.023l-.003-.001c.023.021.037.05.037.083 0 .037-.018.069-.045.09-.043.014-.092.021-.142.021-.011 0-.022 0-.033-.001h.002zm1.82.117h.425v-.145h-.425v-.187h.459v-.146h-.631v.853h.647v-.145h-.475v-.231z"/>
</symbol>
<symbol id="logo-3" viewBox="0 0 57 32">
    <path d="M19.417 26.187c.009 0 .017.002.025.005s.015.007.021.013l.116.111c-.091.09-.202.162-.327.211-.129.048-.278.076-.434.076h-.032.002c-.149.003-.298-.021-.436-.071-.128-.046-.237-.114-.33-.2l.001.001c-.09-.085-.161-.188-.21-.302l-.002-.006c-.047-.114-.075-.246-.075-.385v-.012.001-.02c0-.272.118-.516.305-.684l.001-.001c.099-.087.218-.155.349-.201.143-.048.296-.072.45-.07h.028c.139 0 .273.024.398.067l-.009-.003c.115.044.221.104.313.179l-.098.118c-.007.008-.015.015-.024.021-.01.006-.021.009-.034.009h-.006c-.016-.001-.03-.005-.043-.012L19.314 25l-.073-.041c-.066-.032-.144-.057-.225-.07l-.005-.001c-.048-.008-.104-.013-.161-.013h-.013.001-.011c-.112 0-.219.02-.319.055l.007-.002c-.098.034-.182.085-.254.15l.001-.001c-.073.068-.128.149-.164.237-.038.089-.059.193-.059.302v.011-.001.013c0 .11.022.215.061.311l-.002-.005c.036.087.091.167.162.236.067.064.149.115.242.147.095.034.196.051.299.051.059.001.119-.003.178-.01.148-.015.28-.074.385-.164l-.001.001c.015-.012.034-.02.055-.02zm3.358-.558v.012c0 .138-.029.269-.081.387l.002-.006c-.052.12-.126.222-.218.304l-.001.001c-.097.086-.211.154-.337.198l-.007.002c-.132.045-.284.071-.442.071s-.31-.026-.452-.074l.01.003c-.132-.047-.245-.115-.342-.202l.001.001a.89253.89253 0 0 1-.219-.303l-.002-.006c-.05-.116-.078-.251-.078-.393s.029-.277.081-.4l-.003.007c.05-.115.125-.22.221-.309.097-.085.213-.15.341-.194.132-.046.284-.072.442-.072s.31.026.452.075l-.01-.003c.129.045.246.114.343.201.096.088.171.192.22.305.054.127.081.261.078.396zm-.305 0v-.017c0-.108-.02-.211-.058-.305l.002.006c-.071-.182-.216-.322-.396-.384l-.005-.001c-.096-.033-.206-.052-.321-.052s-.225.019-.329.054l.007-.002c-.096.034-.178.085-.246.15-.068.064-.122.143-.156.232l-.001.004c-.035.094-.055.202-.055.316s.02.222.058.322l-.002-.006c.071.182.217.322.399.383l.005.001c.207.068.435.068.643 0 .093-.033.177-.083.245-.148.07-.069.123-.149.156-.236.039-.101.058-.209.055-.316zm2.597.331.031.07c.011-.025.021-.048.033-.07.013-.027.026-.05.039-.072l-.002.003.743-1.174c.015-.02.028-.033.043-.037s.033-.007.051-.007h.23v1.909h-.26v-1.463c-.001-.01-.001-.021-.001-.033s0-.023.001-.035v.002l-.748 1.19c-.01.018-.025.033-.043.043h-.001c-.018.01-.04.016-.063.016H25.075c-.023 0-.044-.006-.063-.016h.001a.11107.11107 0 0 1-.043-.043v-.001l-.77-1.198v1.532h-.251v-1.905h.229c.018 0 .036.002.052.007h-.001c.018.008.032.021.041.037l.759 1.175c.014.02.026.042.037.066l.001.003zm2.796-.095v.715h-.29v-1.906h.649c.123-.002.244.012.362.042.094.023.181.064.256.119.062.049.111.112.144.184l.001.003c.035.078.051.161.05.244v.012c0 .172-.082.325-.209.422l-.001.001c-.075.057-.163.1-.258.126-.098.028-.211.044-.327.044h-.024l-.351-.005zm0-.205h.352c.076.001.153-.009.226-.029.062-.018.116-.046.164-.083l-.001.001c.082-.068.133-.169.133-.282v-.005c0-.006.001-.013.001-.021 0-.049-.011-.095-.03-.137l.001.002c-.024-.052-.059-.095-.101-.13l-.001-.001c-.097-.065-.217-.104-.345-.104-.016 0-.032.001-.048.002h.002-.352v.786zm3.909.922h-.233c-.022 0-.043-.007-.06-.018a.11596.11596 0 0 1-.038-.044v-.001l-.197-.461h-.994l-.205.461c-.018.037-.055.062-.099.062h-.233l.873-1.909h.302l.884 1.909zm-1.44-.708h.82l-.346-.777c-.027-.059-.048-.118-.066-.179l-.034.1c-.01.03-.021.059-.032.081l-.343.775zm2.697-1.191c.017.008.032.02.043.034l1.273 1.439v-1.482h.26v1.909h-.148c-.02 0-.04-.004-.057-.012h.001a.16489.16489 0 0 1-.047-.035l-1.27-1.438c.001.01.001.021.001.033s0 .023-.001.034v-.002 1.419h-.26v-1.909h.154c.018 0 .036.003.052.009zm3.719 1.14v.758h-.291v-.757l-.804-1.15h.266c.021 0 .04.006.056.016.016.013.029.027.039.043l.503.742c.02.032.038.061.052.089s.027.054.037.081l.037-.082c.014-.03.031-.059.05-.087l.496-.747c.011-.015.023-.029.037-.04.016-.012.036-.019.057-.019h.269l-.805 1.155zM24.923 21.47c.126.014.254.025.384.035 1.962-.763 3.622-2.011 4.772-3.588s1.739-3.415 1.694-5.282l-2.162-1.878c.439 1.988.234 4.043-.594 5.935s-2.245 3.547-4.094 4.779z"/>
    <path d="m24.151 21.382.058.011c1.975-1.228 3.481-2.942 4.323-4.922s.981-4.133.4-6.181l-3.08-2.676c1.245 2.199 1.747 4.661 1.445 7.099-.301 2.437-1.392 4.75-3.147 6.669zm10.445-6.541c-.523 2.052-1.794 3.902-3.623 5.276-.5.38-1.064.737-1.658 1.043l-.065.03c1.49-.38 2.859-1.053 4.003-1.966s2.03-2.042 2.592-3.3l-1.249-1.084z"/>
    <path d="m34.106 14.539-1.778-1.545c-.034 1.762-.611 3.483-1.669 4.986s-2.562 2.732-4.352 3.559h.009c.399 0 .797-.021 1.194-.062 1.673-.594 3.151-1.538 4.302-2.748s1.94-2.65 2.295-4.189zm-9.697-8.054L22.287 4.64c-1.897.637-3.527 1.756-4.68 3.212s-1.772 3.179-1.778 4.946c.007 1.952.763 3.846 2.149 5.383 1.385 1.536 3.321 2.628 5.501 3.101 1.946-2.06 3.085-4.605 3.252-7.266s-.647-5.299-2.323-7.531zm14.599 7.769c-.007-2.316-1.07-4.535-2.955-6.173s-4.439-2.561-7.105-2.567h-.021c-1.281 0-2.512.213-3.66.606l.079-.024 12.989 11.286c.423-.919.671-1.995.672-3.128z"/>
</symbol>
<symbol id="logo-4" viewBox="0 0 57 32">
    <path d="M12.878 11.255h-.002c-1.279 0-2.316.921-2.316 2.058v.002c0 1.137 1.037 2.058 2.316 2.058h.002c1.279 0 2.316-.922 2.316-2.058v-.001c0-1.137-1.037-2.059-2.316-2.059zm17.093-.658c-.004-1.579-.711-3.092-1.967-4.209s-2.958-1.745-4.734-1.749c-1.777.003-3.481.631-4.737 1.748s-1.964 2.63-1.968 4.209v8.706s13.405-1.327 13.406-8.704v-.002zM5.867 22.16c.003 1.099.496 2.151 1.37 2.928s2.058 1.214 3.294 1.218c1.236-.003 2.42-.441 3.294-1.218s1.366-1.829 1.37-2.927v-6.058s-9.327.924-9.327 6.057zm4.663 1.085c-.242 0-.477-.063-.678-.183-.195-.115-.35-.281-.447-.48l-.003-.007c-.059-.121-.093-.264-.093-.415 0-.075.009-.148.025-.219l-.001.007c.047-.211.163-.404.334-.556s.388-.255.625-.297c.072-.013.154-.021.239-.021.168 0 .328.03.476.085l-.009-.003c.223.082.414.221.548.4s.206.388.206.603c.001.143-.03.285-.092.417-.066.139-.155.256-.263.352l-.001.001c-.113.101-.248.181-.397.236-.139.053-.3.083-.467.083h-.001v-.004zm9.426-.598h-.9v.93h-.469v-2.276h1.482v.38h-1.013v.588h.9v.378zm2.253-.156c0 .224-.039.42-.118.589s-.193.299-.341.391c-.139.086-.308.138-.489.138h-.018.001c-.189 0-.357-.045-.505-.136-.149-.094-.267-.226-.341-.382l-.002-.006c-.078-.165-.123-.358-.123-.561v-.021.001-.112c0-.224.04-.421.12-.591.081-.171.195-.302.342-.392.148-.092.316-.138.506-.138s.357.046.505.138c.148.091.262.221.342.392.081.17.122.366.122.589v.101zm-.475-.103c0-.238-.043-.42-.128-.544-.076-.113-.203-.186-.348-.186h-.019.001-.018c-.144 0-.271.073-.346.183l-.001.001c-.085.122-.129.301-.13.538v.111c0 .232.043.412.128.54s.208.192.369.192h.018c.143 0 .269-.073.343-.183l.001-.001c.084-.124.127-.304.128-.541v-.111zm1.995.592v-.013c0-.077-.037-.145-.093-.189h-.001c-.062-.048-.175-.098-.338-.15-.15-.047-.278-.1-.399-.163l.014.006c-.259-.14-.388-.328-.388-.564 0-.123.034-.233.103-.328.07-.097.17-.172.299-.227.13-.054.276-.081.437-.081.163 0 .307.029.435.089.127.059.226.141.295.249.071.107.107.229.107.365h-.469c0-.104-.032-.185-.098-.242-.066-.059-.158-.087-.276-.087-.115 0-.204.025-.267.074-.058.042-.096.109-.096.185v.006c0 .074.037.136.111.186.075.05.185.097.33.14.267.08.461.18.583.299s.183.267.183.444c0 .197-.075.352-.224.464s-.349.167-.601.167c-.175 0-.334-.032-.478-.096-.135-.057-.247-.148-.328-.261l-.002-.002c-.07-.105-.112-.234-.112-.373v-.015.001h.47c0 .251.15.377.45.377.111 0 .198-.022.261-.067.057-.041.093-.107.093-.182v-.009zm2.502-1.298h-.697v1.895h-.469v-1.895h-.686v-.38h1.853v.38zm1.637.909h-.9v.61h1.056v.377h-1.525v-2.276h1.522v.38h-1.053v.542h.9v.367zm1.274.153h-.373v.833H28.3v-2.276h.845c.269 0 .476.06.622.18s.219.289.219.508c0 .155-.034.285-.101.389-.075.109-.179.194-.3.245l-.005.002.492.93v.021h-.503l-.427-.832zm-.373-.38h.379c.117 0 .208-.029.273-.089.06-.059.097-.141.097-.231v-.018.001c0-.108-.03-.192-.092-.253s-.154-.092-.28-.092h-.377v.683zm2.84.411v.802h-.469v-2.276h.887c.171 0 .321.031.45.094.13.062.23.151.3.267.069.115.105.245.105.392 0 .223-.077.399-.229.528-.153.128-.363.193-.633.193h-.411zm0-.379h.419c.124 0 .219-.029.283-.087.066-.059.099-.142.099-.25v-.017c0-.098-.037-.187-.099-.254-.066-.068-.156-.104-.272-.106h-.43v.715zm2.965.195h-.9v.61h1.056v.377h-1.525v-2.276h1.522v.38h-1.053v.542h.9v.367zm2.176-.909h-.697v1.895h-.469v-1.895h-.687v-.38h1.853v.38zm1.637.909h-.899v.61h1.056v.377h-1.525v-2.276h1.522v.38h-1.053v.542h.9v.367zm1.274.153h-.373v.833h-.469v-2.276h.846c.269 0 .476.06.622.18s.219.289.219.508c0 .155-.034.285-.101.389-.075.109-.179.194-.301.245l-.005.002.492.93v.021h-.503l-.427-.832zm-.374-.38h.378c.117 0 .209-.029.273-.089.06-.059.097-.141.097-.232v-.018.001c0-.108-.03-.192-.092-.253-.06-.061-.154-.092-.279-.092h-.377v.683zm2.755.616v-.013c0-.077-.037-.146-.094-.189h-.001c-.062-.048-.175-.098-.338-.15-.15-.047-.278-.1-.399-.163l.014.006c-.259-.14-.388-.328-.388-.564 0-.123.035-.233.103-.328.07-.097.17-.172.299-.227.13-.054.276-.081.437-.081.163 0 .307.029.435.089.127.059.226.141.295.249.071.107.107.229.107.365h-.469c0-.104-.032-.185-.098-.242-.066-.059-.158-.087-.276-.087-.115 0-.204.025-.267.074-.058.042-.096.109-.096.186v.005c0 .074.037.136.111.186s.185.097.33.14c.267.08.461.18.583.299s.183.267.183.444c0 .197-.075.352-.224.464s-.349.167-.601.167c-.175 0-.334-.032-.478-.096-.135-.057-.247-.148-.328-.261l-.002-.002c-.07-.105-.112-.234-.112-.373v-.015.001h.47c0 .251.15.377.45.377.111 0 .198-.022.261-.067.057-.041.094-.107.094-.182v-.009z"/>
</symbol>
<symbol id="logo-5" viewBox="0 0 57 32">
    <path d="M14.27 23.859c.13.147.199.332.196.521.001.012.001.026.001.039 0 .117-.026.227-.073.326l.002-.005c-.056.119-.135.218-.232.296l-.002.001c-.221.152-.494.243-.789.243-.032 0-.064-.001-.096-.003h.004-1.549v-3.301h1.517c.027-.002.058-.003.09-.003.279 0 .539.083.756.225l-.005-.003c.098.076.176.171.227.277.051.108.074.224.068.341.009.181-.053.361-.176.505-.118.131-.281.222-.462.258.205.034.391.134.523.283zm-1.816-.498h.649c.147.01.293-.029.412-.11.047-.039.085-.088.109-.144l.001-.003c.019-.043.03-.092.03-.145 0-.011-.001-.022-.001-.033v.001c.001-.008.001-.018.001-.028 0-.053-.011-.104-.031-.15l.001.002c-.025-.058-.062-.108-.108-.147h-.001c-.105-.071-.234-.113-.373-.113-.018 0-.036.001-.054.002h.002-.638v.867zm1.124 1.266c.051-.04.091-.091.118-.149l.001-.003c.022-.046.034-.101.034-.158 0-.009 0-.018-.001-.027v.001c0-.007.001-.016.001-.024 0-.059-.013-.115-.037-.165l.001.002c-.029-.061-.07-.112-.121-.151l-.001-.001c-.112-.076-.249-.121-.397-.121-.015 0-.03 0-.045.001h.002-.68v.908h.689c.155.008.308-.032.435-.115zm3.793.651-.843-1.291h-.317v1.291h-.726v-3.302h1.374c.029-.002.064-.003.098-.003.323 0 .622.107.862.287l-.004-.003c.192.179.308.415.327.666.002.021.002.045.002.069 0 .241-.086.461-.228.633l.001-.002c-.171.175-.396.296-.649.335l-.006.001.899 1.319h-.789zm-1.161-1.74h.594c.412 0 .619-.166.619-.5 0-.008.001-.017.001-.027 0-.063-.013-.122-.035-.176l.001.003c-.028-.067-.068-.124-.118-.171-.113-.085-.255-.136-.41-.136-.02 0-.04.001-.06.003h.003-.601l.007 1.005zm5.129 1.075h-1.446l-.255.665h-.761l1.328-3.265h.823l1.323 3.265h-.761l-.25-.665zm-.194-.499-.529-1.394-.529 1.394h1.057zm5.16 1.164h-.72l-1.616-2.245v2.245h-.719v-3.302h.719l1.616 2.259v-2.259h.72v3.302zm4.113-.79c-.149.249-.376.452-.652.582-.28.132-.608.209-.955.209-.021 0-.041 0-.062-.001h.003-1.282v-3.302h1.283c.018 0 .039-.001.06-.001.345 0 .673.075.968.209l-.015-.006c.276.128.503.329.652.576.148.269.226.565.226.867s-.077.597-.226.866zm-.825-.079c.196-.205.317-.482.318-.788 0-.289-.113-.569-.318-.788-.223-.177-.509-.284-.82-.284-.029 0-.058.001-.086.003h.004-.5v2.138h.5c.025.002.054.003.083.003.311 0 .596-.107.822-.285l-.003.002zm-7.803-20.8s9.3 3.215 9.103 7.867v7.869s-9.294-3.216-9.1-7.869l-.003-7.867zm17.389 13.894c1.757-1.107 3.788-1.792 5.909-1.994v-2.464c-2.444.863-4.517 2.427-5.909 4.458z"/>
    <path d="M38.124 18.245c1.437-2.651 3.93-4.696 6.964-5.716V5.431s-13.245 4.58-12.965 11.205v11.203s.59-.205 1.519-.589c0-.358 0-.719.043-1.083.274-3.075 1.87-5.925 4.439-7.924z"/>
    <path d="M36.864 22.407c.069-.777.225-1.546.463-2.294-1.599 1.725-2.568 3.867-2.769 6.122-.02.213-.03.426-.036.645 1.105-.483 1.942-.895 2.761-1.334l-.214.105c-.235-1.067-.304-2.159-.206-3.244zm.527.04c-.026.273-.041.589-.041.909 0 .718.074 1.419.216 2.094l-.012-.066c3.619-1.983 7.685-5.046 7.528-8.748v-.323c-2.586.265-5.004 1.3-6.885 2.946-.415.932-.702 2.014-.804 3.148l-.003.04z"/>
</symbol>
<symbol id="logo-6" viewBox="0 0 57 32">
    <path d="M28.493 14.618c-.203-.262-.326-.596-.326-.958 0-.036.001-.071.004-.107v.005-1.538c0-.471.107-.829.321-1.075.213-.245.581-.367 1.101-.366.489 0 .837.105 1.042.313.224.266.333.591.308.919v.362h-.875v-.366c.003-.119-.005-.239-.026-.358-.015-.087-.06-.161-.125-.212l-.001-.001c-.079-.053-.175-.084-.279-.084-.013 0-.026.001-.039.001h.002c-.011-.001-.025-.001-.038-.001-.11 0-.212.033-.297.09l.002-.001c-.072.058-.124.139-.145.232v.003c-.022.105-.035.226-.035.351v.031-.002 1.866c-.014.18.025.36.112.524.045.056.104.1.172.126l.003.001c.051.02.111.032.173.032.019 0 .037-.001.055-.003H29.6c.011.001.024.001.037.001.102 0 .197-.032.274-.087l-.002.001c.068-.056.115-.135.13-.224v-.002c.02-.124.03-.249.027-.374v-.379h.875v.346c.002.027.003.059.003.091 0 .332-.115.638-.308.878l.002-.003c-.201.228-.544.342-1.047.342s-.884-.122-1.1-.375zm3.644.016c-.221-.24-.332-.588-.332-1.05v-1.618c0-.457.11-.803.332-1.037s.59-.351 1.109-.35c.515 0 .882.117 1.103.35.221.235.333.58.333 1.037v1.617c0 .457-.112.807-.337 1.049s-.59.361-1.1.361-.886-.122-1.109-.359zm1.516-.389c.079-.149.115-.314.105-.478v-1.981c.001-.016.002-.035.002-.053 0-.152-.039-.296-.107-.421l.002.005c-.046-.057-.107-.101-.176-.128l-.003-.001c-.051-.02-.11-.031-.171-.031-.021 0-.042.001-.062.004h.002c-.018-.002-.038-.004-.059-.004-.062 0-.121.011-.176.032l.003-.001c-.072.027-.133.071-.179.128l-.001.001c-.08.147-.116.308-.105.469v1.99c-.011.165.025.329.105.479.051.05.114.091.185.118.067.027.144.042.225.042s.158-.016.229-.044l-.004.001c.071-.028.133-.068.185-.118v-.01zm2.082-3.619h.942l.708 2.984.725-2.984h.916l.093 4.307h-.678l-.073-2.994-.699 2.994h-.544l-.724-3.005-.067 3.005h-.685l.085-4.307zm4.441 0h1.468c.845 0 1.268.407 1.268 1.223 0 .781-.445 1.171-1.335 1.17h-.5v1.914h-.906l.005-4.308zm1.254 1.841c.09.01.18.003.267-.021.085-.023.165-.062.231-.115.104-.146.15-.316.131-.486.001-.014.001-.031.001-.047 0-.122-.016-.241-.047-.353l.002.009c-.014-.046-.037-.085-.067-.119-.032-.035-.07-.064-.112-.085l-.002-.001c-.105-.045-.228-.071-.357-.071-.017 0-.033 0-.05.001h.002-.351v1.287h.352zm2.789-1.841h.973l.998 4.307h-.845l-.197-.993h-.868l-.203.993h-.857l.998-4.307zm.831 2.816-.339-1.808-.339 1.808h.677zm1.946-2.816h.635l1.213 2.457v-2.457h.752v4.307h-.603l-1.221-2.565v2.565h-.777l.002-4.307zm4.361 2.665-1.009-2.659h.85l.616 1.708.578-1.708h.832l-.997 2.659v1.642h-.869V13.29zm-21.465 3.526v.225h-.739v1.75h-.31v-1.75H28.1v-.225h1.792zm2.318 1.976h-.246c-.023 0-.044-.007-.061-.019-.017-.011-.031-.026-.039-.045v-.001l-.214-.469h-1.026l-.213.469c-.007.021-.018.039-.033.053-.017.012-.039.019-.062.019h-.245l.906-1.975h.315l.917 1.968zm-1.501-.734h.855l-.363-.804a1.2783 1.2783 0 0 1-.064-.176l-.003-.01c-.013.037-.023.074-.034.105l-.033.083-.358.803zm3.062.539c.057.003.114.003.171 0 .049-.004.097-.012.145-.023.044-.009.088-.021.131-.036.04-.014.08-.031.121-.049v-.444h-.365c-.017 0-.033-.006-.046-.016-.006-.004-.01-.01-.014-.016-.003-.005-.004-.011-.004-.018v-.153h.703v.757c-.11.068-.237.123-.372.158l-.01.002c-.075.019-.15.033-.227.041-.088.009-.176.012-.265.012h-.011c-.159 0-.312-.027-.455-.077l.01.003c-.14-.049-.26-.119-.364-.208l.002.001c-.097-.086-.176-.19-.231-.307l-.002-.006c-.053-.117-.083-.253-.083-.397v-.013.001-.012c0-.145.03-.283.084-.407l-.003.007c.052-.117.132-.224.234-.313.103-.089.227-.158.363-.205.155-.051.32-.076.485-.074.084 0 .169.005.252.017.074.011.146.027.215.05.064.02.124.047.181.078.055.031.108.065.158.103l-.087.122c-.007.011-.017.02-.029.026-.012.007-.026.01-.042.011-.021 0-.04-.006-.057-.016h.001a.89203.89203 0 0 1-.094-.05l.005.003c-.034-.019-.074-.037-.115-.052l-.006-.002c-.046-.017-.102-.032-.16-.043l-.007-.001c-.065-.011-.141-.017-.218-.017h-.013.001-.011c-.121 0-.238.02-.346.057l.008-.002c-.101.035-.192.088-.267.156-.072.067-.129.149-.166.241l-.002.005c-.038.098-.061.211-.061.329s.022.232.063.336l-.002-.006c.039.093.101.178.181.249.074.068.164.121.264.156.115.034.237.047.359.039zm2.888-.031h.989v.225h-1.291v-1.975h.309l-.007 1.75zm2.018.226h-.309v-1.975h.309v1.975zm1.153-1.966c.019.009.034.021.047.036l1.324 1.489c-.001-.011-.001-.023-.001-.035s0-.025.001-.037v.002-1.472h.27v1.984h-.166c-.021 0-.04-.004-.058-.012h.001c-.019-.01-.035-.022-.048-.037l-1.323-1.488v1.536h-.259v-1.975h.161c.018 0 .035.003.051.009zm3.923-.01v.217h-1.098v.652h.89v.21h-.89v.674h1.098v.218h-1.417v-1.971h1.417zm-32.467-12.2 13.757 3.372v11.818l-13.757-3.371V4.616zm-.882-1.008V17.01l15.52 3.806V7.417L10.404 3.61z"/>
    <path d="M18.722 27.036 3.2 23.227V9.828l15.522 3.807v13.401z"/>
    <path d="m10.661 4.465 13.578 3.33-5.774 4.987L4.886 9.45l5.776-4.986zm-.257-.856L3.2 9.828l15.522 3.808 7.202-6.22-15.52-3.807zm9.191 22.673 6.329-5.466-6.33-1.552v7.019z"/>
</symbol>
<symbol id="icon-close" viewBox="0 0 32 32">
    <path d="M26.667 7.303l-1.97-1.97-7.808 7.808-7.808-7.808-1.97 1.97 7.808 7.808-7.808 7.808 1.97 1.97 7.808-7.808 7.808 7.808 1.97-1.97-7.808-7.808 7.808-7.808z"></path>
</symbol>
<symbol id="icon-person" viewBox="0 0 32 32">
    <path
        d="M16 16c2.946 0 5.333-2.388 5.333-5.333s-2.388-5.333-5.333-5.333v0c-2.946 0-5.333 2.388-5.333 5.333s2.388 5.333 5.333 5.333v0zM16 18.667c-3.561 0-10.667 1.787-10.667 5.333v1.333c0 0.732 0.599 1.333 1.333 1.333h18.667c0.732 0 1.333-0.601 1.333-1.333v-1.333c0-3.547-7.108-5.333-10.667-5.333z">
    </path>
</symbol>
<symbol id="icon-phone" viewBox="0 0 32 32">
    <path
        d="M24.882 19.774l-3.268-0.373c-0.090-0.011-0.194-0.018-0.3-0.018-0.707 0-1.347 0.287-1.81 0.75l-2.368 2.368c-3.669-1.894-6.585-4.81-8.427-8.372l-0.051-0.108 2.382-2.377c0.463-0.463 0.75-1.103 0.75-1.81 0-0.106-0.006-0.21-0.019-0.312l0.001 0.012-0.373-3.243c-0.155-1.287-1.24-2.276-2.557-2.276-0.001 0-0.002 0-0.003 0h-2.226c-1.454 0-2.663 1.209-2.574 2.661 0.683 10.987 9.47 19.762 20.444 20.444 1.452 0.089 2.663-1.12 2.663-2.574v-2.226c0-0.004 0-0.008 0-0.012 0-1.308-0.985-2.386-2.253-2.532l-0.012-0.001z">
    </path>
</symbol>
<symbol id="icon-email" viewBox="0 0 32 32">
    <path
        d="M26.667 5.333h-21.333c-1.467 0-2.652 1.2-2.652 2.667l-0.014 16c0 1.467 1.2 2.667 2.667 2.667h21.333c1.467 0 2.667-1.2 2.667-2.667v-16c0-1.467-1.2-2.667-2.667-2.667zM26.133 11.001l-9.426 5.892c-0.201 0.126-0.446 0.2-0.708 0.2s-0.506-0.075-0.713-0.204l0.006 0.003-9.426-5.892c-0.336-0.201-0.557-0.562-0.557-0.975 0-0.625 0.507-1.132 1.132-1.132 0.233 0 0.449 0.070 0.629 0.19l-0.004-0.003 8.933 5.586 8.933-5.588c0.176-0.118 0.392-0.188 0.624-0.188 0.625 0 1.132 0.507 1.132 1.132 0 0.413-0.221 0.775-0.552 0.972l-0.005 0.003z">
    </path>
</symbol>
<symbol id="icon-send-telegram" viewBox="0 0 32 32">
    <path fill="#fff" style="fill: var(--color1, #fff)"
        d="M32 0l-32 18 10.227 3.787 15.773-14.787-11.997 16.187 0.009 0.003-0.012-0.003v8.813l5.735-6.691 7.267 2.691 4.999-28z">
    </path>
</symbol>
<symbol id="icon-check" viewBox="0 0 42 32">
<path fill="#fff" style="fill: var(--color1, #fff); stroke: var(--color1, #fff)" stroke="#fff" stroke-linejoin="miter" stroke-linecap="butt" stroke-miterlimit="4" stroke-width="0.64" d="M6.263 15.205l-0.22-0.21-3.307 3.132 11.651 11.114 24.477-23.351-3.285-3.134-21.192 20.197-8.124-7.75z"></path>
</symbol>
</defs>
</svg>
